# Blender v2.79 (sub 0) OBJ File: ''
# www.blender.org
mtllib cylinder_sm.mtl
o Cylinder
v 0.073909 0.002041 -0.001026
v 0.064697 2.051215 0.025092
v 0.072408 0.002012 0.015510
v 0.067963 0.001981 0.031411
v 0.060252 2.051183 0.040992
v 0.060745 0.001947 0.046065
v 0.053034 2.051150 0.055646
v 0.051031 0.001913 0.058910
v 0.043320 2.051117 0.068491
v 0.039193 0.001881 0.069451
v 0.031482 2.051084 0.079032
v 0.025689 0.001851 0.077284
v 0.017978 2.051054 0.086865
v 0.011035 0.001824 0.082107
v -0.011916 2.051004 0.093317
v -0.004205 0.001801 0.083736
v -0.019444 0.001784 0.082107
v -0.027155 2.050986 0.091689
v -0.034098 0.001772 0.077284
v -0.041809 2.050975 0.086865
v -0.047603 0.001767 0.069452
v -0.067152 2.050972 0.068492
v -0.059441 0.001769 0.058911
v -0.069156 0.001777 0.046066
v -0.076867 2.050980 0.055647
v -0.076374 0.001791 0.031412
v -0.084085 2.050995 0.040993
v -0.080820 0.001811 0.015512
v -0.088531 2.051014 0.025093
v -0.082321 0.001837 -0.001024
v -0.090032 2.051039 0.008557
v -0.080820 0.001866 -0.017560
v -0.088531 2.051068 -0.007979
v -0.076375 0.001897 -0.033461
v -0.084086 2.051100 -0.023880
v -0.069157 0.001930 -0.048115
v -0.076868 2.051133 -0.038534
v -0.059443 0.001964 -0.060960
v -0.067154 2.051167 -0.051378
v -0.047605 0.001997 -0.071501
v -0.055316 2.051200 -0.061920
v -0.034100 0.002027 -0.079334
v -0.041811 2.051230 -0.069752
v -0.019447 0.002054 -0.084157
v -0.011918 2.051280 -0.076205
v -0.004207 0.002077 -0.085786
v 0.003321 2.051297 -0.074576
v 0.011032 0.002094 -0.084157
v 0.017975 2.051308 -0.069753
v 0.025686 0.002106 -0.079334
v 0.039191 0.002110 -0.071501
v 0.031480 2.051314 -0.061920
v 0.051029 0.002109 -0.060960
v 0.053033 2.051304 -0.038535
v 0.060744 0.002100 -0.048116
v 0.067962 0.002086 -0.033462
v 0.060251 2.051290 -0.023881
v 0.072408 0.002066 -0.017562
v 0.064697 2.051269 -0.007980
v 0.066198 2.051244 0.008556
v 0.003324 2.051026 0.091688
v -0.055314 2.050970 0.079033
v -0.027158 2.051257 -0.074576
v 0.043318 2.051312 -0.051379
vn 0.9959 0.0033 0.0904
vn 0.9631 0.0024 0.2692
vn 0.8971 0.0013 0.4419
vn 0.7976 0.0002 0.6032
vn 0.6650 -0.0010 0.7468
vn 0.5018 -0.0022 0.8650
vn 0.3126 -0.0033 0.9499
vn 0.1063 -0.0042 0.9943
vn -0.1062 -0.0050 0.9943
vn -0.1063 -0.0050 0.9943
vn -0.3127 -0.0056 0.9498
vn -0.3126 -0.0056 0.9499
vn -0.5017 -0.0059 0.8650
vn -0.6650 -0.0060 0.7468
vn -0.7976 -0.0058 0.6032
vn -0.8971 -0.0054 0.4419
vn -0.9630 -0.0049 0.2693
vn -0.9959 -0.0042 0.0904
vn -0.9959 -0.0033 -0.0904
vn -0.9631 -0.0024 -0.2692
vn -0.8971 -0.0013 -0.4419
vn -0.7976 -0.0002 -0.6032
vn -0.6650 0.0010 -0.7468
vn -0.5017 0.0022 -0.8651
vn -0.5017 0.0022 -0.8650
vn -0.3127 0.0033 -0.9498
vn -0.3127 0.0033 -0.9499
vn -0.1063 0.0042 -0.9943
vn 0.1063 0.0050 -0.9943
vn 0.3126 0.0056 -0.9499
vn 0.5017 0.0059 -0.8650
vn 0.6650 0.0060 -0.7468
vn 0.7975 0.0058 -0.6032
vn 0.8971 0.0054 -0.4419
vn -0.0013 1.0000 0.0016
vn 0.9631 0.0049 -0.2693
vn 0.9630 0.0049 -0.2693
vn 0.9959 0.0042 -0.0904
vn 0.0013 -1.0000 -0.0016
vn -0.0013 1.0000 0.0017
vn -0.0013 1.0000 0.0015
vn -0.0013 1.0000 0.0019
vn 0.0013 -1.0000 -0.0015
vn 0.0012 -1.0000 -0.0014
vn 0.0013 -1.0000 -0.0017
vn 0.0013 -1.0000 -0.0018
usemtl None
s 1
f 1//1 2//1 3//1
f 2//2 4//2 3//2
f 5//3 6//3 4//3
f 7//4 8//4 6//4
f 9//5 10//5 8//5
f 11//6 12//6 10//6
f 13//7 14//7 12//7
f 14//8 15//8 16//8
f 15//9 17//10 16//10
f 18//11 19//12 17//12
f 20//13 21//13 19//13
f 21//14 22//14 23//14
f 22//15 24//15 23//15
f 25//16 26//16 24//16
f 27//17 28//17 26//17
f 29//18 30//18 28//18
f 31//19 32//19 30//19
f 33//20 34//20 32//20
f 35//21 36//21 34//21
f 37//22 38//22 36//22
f 39//23 40//23 38//23
f 41//24 42//25 40//25
f 43//26 44//27 42//27
f 44//28 45//28 46//28
f 46//29 47//29 48//29
f 48//30 49//30 50//30
f 49//31 51//31 50//31
f 52//32 53//32 51//32
f 53//33 54//33 55//33
f 54//34 56//34 55//34
f 22//35 7//35 25//35
f 57//36 58//37 56//37
f 59//38 1//38 58//38
f 36//39 56//39 34//39
f 1//1 60//1 2//1
f 2//2 5//2 4//2
f 5//3 7//3 6//3
f 7//4 9//4 8//4
f 9//5 11//5 10//5
f 11//6 13//6 12//6
f 13//7 61//7 14//7
f 14//8 61//8 15//8
f 15//9 18//9 17//10
f 18//11 20//11 19//12
f 20//13 62//13 21//13
f 21//14 62//14 22//14
f 22//15 25//15 24//15
f 25//16 27//16 26//16
f 27//17 29//17 28//17
f 29//18 31//18 30//18
f 31//19 33//19 32//19
f 33//20 35//20 34//20
f 35//21 37//21 36//21
f 37//22 39//22 38//22
f 39//23 41//23 40//23
f 41//24 43//24 42//25
f 43//26 63//26 44//27
f 44//28 63//28 45//28
f 46//29 45//29 47//29
f 48//30 47//30 49//30
f 49//31 52//31 51//31
f 52//32 64//32 53//32
f 53//33 64//33 54//33
f 54//34 57//34 56//34
f 5//35 2//35 29//35
f 60//35 59//35 33//35
f 57//35 54//35 35//40
f 64//35 52//35 39//35
f 49//35 47//41 43//41
f 45//41 63//35 47//41
f 43//41 41//35 49//35
f 39//35 37//35 64//35
f 35//40 33//35 59//35
f 31//35 29//35 2//35
f 27//35 25//35 5//35
f 22//35 62//35 9//35
f 20//35 18//35 13//41
f 15//42 61//40 18//35
f 13//41 11//40 20//35
f 9//35 7//35 22//35
f 2//35 60//35 31//35
f 54//35 37//35 35//40
f 47//41 63//35 43//41
f 41//35 52//35 49//35
f 33//35 31//35 60//35
f 25//35 7//35 5//35
f 18//35 61//40 13//41
f 11//40 62//35 20//35
f 59//35 57//35 35//40
f 41//35 39//35 52//35
f 29//35 27//35 5//35
f 11//40 9//35 62//35
f 64//35 37//35 54//35
f 57//36 59//36 58//37
f 59//38 60//38 1//38
f 58//39 1//39 30//39
f 3//39 4//39 28//39
f 6//39 8//39 23//39
f 10//39 12//39 21//39
f 14//39 16//43 17//44
f 17//44 19//39 14//39
f 21//39 23//39 8//39
f 24//39 26//39 6//39
f 28//39 30//39 1//39
f 32//39 34//39 58//39
f 36//39 38//39 53//39
f 40//39 42//45 51//39
f 44//39 46//39 48//46
f 48//46 50//39 44//39
f 51//39 53//39 38//39
f 55//39 56//39 36//39
f 1//39 3//39 28//39
f 8//39 10//39 21//39
f 14//39 19//39 12//39
f 23//39 24//39 6//39
f 30//39 32//39 58//39
f 38//39 40//39 51//39
f 44//39 50//39 42//45
f 53//39 55//39 36//39
f 4//39 26//39 28//39
f 19//39 21//39 12//39
f 34//39 56//39 58//39
f 50//39 51//39 42//45
f 6//39 26//39 4//39
